<?xml version="1.0" encoding="UTF-8" standalone="no"?>
<!-- Created with Inkscape (http://www.inkscape.org/) -->

<svg
   width="1194.426"
   height="512"
   viewBox="0 0 1194.426 512"
   version="1.1"
   id="svg5"
   inkscape:version="1.2.2 (732a01da63, 2022-12-09, custom)"
   sodipodi:docname="rext-neon.svg"
   inkscape:export-filename="../d3fe906a/rext-neon.png"
   inkscape:export-xdpi="95.965759"
   inkscape:export-ydpi="95.965759"
   xmlns:inkscape="http://www.inkscape.org/namespaces/inkscape"
   xmlns:sodipodi="http://sodipodi.sourceforge.net/DTD/sodipodi-0.dtd"
   xmlns="http://www.w3.org/2000/svg"
   xmlns:svg="http://www.w3.org/2000/svg">
  <sodipodi:namedview
     id="namedview7"
     pagecolor="#505050"
     bordercolor="#eeeeee"
     borderopacity="1"
     inkscape:pageshadow="0"
     inkscape:pageopacity="0"
     inkscape:pagecheckerboard="0"
     inkscape:document-units="px"
     showgrid="false"
     inkscape:zoom="0.43986009"
     inkscape:cx="596.78068"
     inkscape:cy="210.29414"
     inkscape:window-width="1366"
     inkscape:window-height="695"
     inkscape:window-x="0"
     inkscape:window-y="0"
     inkscape:window-maximized="1"
     inkscape:current-layer="layer1"
     inkscape:showpageshadow="0"
     inkscape:deskcolor="#505050">
    <inkscape:grid
       type="xygrid"
       id="grid824" />
  </sodipodi:namedview>
  <defs
     id="defs2">
    <filter
       inkscape:collect="always"
       style="color-interpolation-filters:sRGB"
       id="filter953"
       x="-0.021892975"
       y="-0.078319289"
       width="1.0437859"
       height="1.1566386">
      <feGaussianBlur
         inkscape:collect="always"
         stdDeviation="7.7906339"
         id="feGaussianBlur955" />
    </filter>
    <filter
       inkscape:collect="always"
       style="color-interpolation-filters:sRGB"
       id="filter957"
       x="-0.057221067"
       y="-0.20470098"
       width="1.1144421"
       height="1.409402">
      <feGaussianBlur
         inkscape:collect="always"
         stdDeviation="21.64065"
         id="feGaussianBlur959" />
    </filter>
    <filter
       inkscape:collect="always"
       style="color-interpolation-filters:sRGB"
       id="filter961"
       x="-0.10790358"
       y="-0.38601113"
       width="1.2158072"
       height="1.7720223">
      <feGaussianBlur
         inkscape:collect="always"
         stdDeviation="42.415675"
         id="feGaussianBlur963" />
    </filter>
  </defs>
  <g
     inkscape:label="Layer 1"
     inkscape:groupmode="layer"
     id="layer1">
    <text
       xml:space="preserve"
       style="font-size:40px;line-height:1.25;font-family:sans-serif;-inkscape-font-specification:sans-serif"
       x="235"
       y="140"
       id="text6441"><tspan
         sodipodi:role="line"
         id="tspan6439"
         x="235"
         y="140" /></text>
    <g
       id="g1300"
       inkscape:export-filename="../d3fe906a/rext-neon.png"
       inkscape:export-xdpi="95.965759"
       inkscape:export-ydpi="95.965759">
      <g
         id="g1024"
         transform="translate(-131.7377,515.80934)"
         style="mix-blend-mode:normal;stroke:#ffffff;stroke-width:30;stroke-linejoin:round;stroke-dasharray:none;stroke-opacity:1;filter:url(#filter961)">
        <g
           id="g1029-6-1"
           style="fill:#ffffff;stroke:#ffffff;stroke-width:30;stroke-linejoin:round;stroke-dasharray:none;stroke-opacity:1"
           transform="translate(131.73766,-515.80934)">
          <g
             id="g5323-7-8"
             style="fill:#ffffff;stroke:#ffffff;stroke-width:30;stroke-linejoin:round;stroke-dasharray:none;stroke-opacity:1">
            <path
               d="M 424.83682,318.869 H 382.515 l -21.743,-43.486 -46.51826,-10e-5 V 318.869 H 276.837 l -2.3e-4,-185.73801 h 95.39643 c 15.05668,0 28.37173,3.08999 39.94514,9.26997 11.68578,6.06761 20.61866,14.55104 26.79864,25.45028 6.29235,10.78687 9.43852,23.14683 9.43852,37.07988 0,16.85449 -4.55071,30.95609 -13.65214,42.30478 -8.98906,11.23633 -20.73149,18.87703 -35.22636,22.9221 z M 411.16707,205.26821 c 0,-12.02287 -3.82035,-21.46139 -11.46105,-28.31555 -7.52834,-6.96652 -17.64104,-10.44978 -30.33809,-10.44978 h -55.11419 v 77.02503 h 55.11419 c 12.58469,0 22.69738,-3.42708 30.33809,-10.28124 7.6407,-6.85416 11.46105,-16.18031 11.46105,-27.97846 z"
               style="font-size:345.18px;line-height:1.25;font-family:'DIN Medium';-inkscape-font-specification:'DIN Medium, ';fill:#ffffff;fill-opacity:1;stroke:#ffffff;stroke-width:30;stroke-linejoin:round;stroke-dasharray:none;stroke-opacity:1"
               id="path17573-5-7"
               sodipodi:nodetypes="cccccccsccscccscsccsss" />
            <path
               style="fill:#ffffff;fill-opacity:1;stroke:#ffffff;stroke-width:30;stroke-linecap:butt;stroke-linejoin:round;stroke-dasharray:none;stroke-opacity:1"
               d="m 276.83677,378.869 h 37.41697 v -10 H 277.25 Z"
               id="path1200-3-9" />
            <path
               style="fill:#ffffff;fill-opacity:1;stroke:#ffffff;stroke-width:30;stroke-linecap:butt;stroke-linejoin:round;stroke-dasharray:none;stroke-opacity:1"
               d="m 276.83677,358.869 h 37.41697 v -10 H 277.25 Z"
               id="path1548-5-2" />
            <path
               style="fill:#ffffff;fill-opacity:1;stroke:#ffffff;stroke-width:30;stroke-linecap:butt;stroke-linejoin:round;stroke-dasharray:none;stroke-opacity:1"
               d="m 276.83677,338.869 h 37.41697 v -10 H 277.25 Z"
               id="path1550-6-0" />
            <path
               style="fill:#ffffff;fill-opacity:1;stroke:#ffffff;stroke-width:30;stroke-linecap:butt;stroke-linejoin:round;stroke-dasharray:none;stroke-opacity:1"
               d="m 456.00002,378.86948 -43.48502,-4.8e-4 -5.0001,-10 h 43.29124 z"
               id="path4328-2-2"
               sodipodi:nodetypes="ccccc" />
            <path
               style="fill:#ffffff;fill-opacity:1;stroke:#ffffff;stroke-width:30;stroke-linecap:butt;stroke-linejoin:round;stroke-dasharray:none;stroke-opacity:1"
               d="m 446.00012,358.86948 -43.48502,-4.8e-4 -5.0001,-10 h 43.29124 z"
               id="path4696-9-3"
               sodipodi:nodetypes="ccccc" />
            <path
               style="fill:#ffffff;fill-opacity:1;stroke:#ffffff;stroke-width:30;stroke-linecap:butt;stroke-linejoin:round;stroke-dasharray:none;stroke-opacity:1"
               d="m 436.00012,338.86948 -43.48502,-4.8e-4 -5.0001,-10 h 43.29124 z"
               id="path5143-1-7"
               sodipodi:nodetypes="ccccc" />
          </g>
        </g>
        <g
           id="g1019-2-5"
           style="fill:#ffffff;stroke:#ffffff;stroke-width:30;stroke-linejoin:round;stroke-dasharray:none;stroke-opacity:1"
           transform="translate(131.73766,-515.80934)">
          <g
             id="g1687-7-9"
             style="fill:#ffffff;stroke:#ffffff;stroke-width:30;stroke-linejoin:round;stroke-dasharray:none;stroke-opacity:1">
            <path
               d="M 220.651,276.006 220.65086,238.7264 55.999999,162.44162 V 202.4825 L 179.229,257.711 56,312.595 v 6.274 h 72.13693 z"
               id="path17571-0-2"
               style="font-size:345.18px;line-height:1.25;font-family:Gotham;-inkscape-font-specification:Gotham;fill:#ffffff;stroke:#ffffff;stroke-width:30;stroke-linejoin:round;stroke-dasharray:none;stroke-opacity:1"
               sodipodi:nodetypes="ccccccccc" />
            <path
               style="fill:#ffffff;fill-opacity:1;stroke:#ffffff;stroke-width:30;stroke-linecap:butt;stroke-linejoin:round;stroke-dasharray:none;stroke-opacity:1"
               d="m 56,352.291 v -3.422 h 7.385931 z"
               id="path13998-9-2"
               sodipodi:nodetypes="cccc" />
            <path
               style="fill:#ffffff;fill-opacity:1;stroke:#ffffff;stroke-width:30;stroke-linecap:butt;stroke-linejoin:round;stroke-dasharray:none;stroke-opacity:1"
               d="m 56,328.869 h 50.55326 l -21.583663,10 H 56 Z"
               id="path14579-3-8"
               sodipodi:nodetypes="ccccc" />
          </g>
        </g>
        <path
           d="M 766.98488,-215.67657 H 654.31301 q 0,15.21237 5.18224,26.07835 5.18224,10.69881 14.87804,16.7169 9.86296,5.85091 24.23949,5.85091 14.37653,0 23.23649,-4.01206 8.85995,-4.01205 18.89009,-13.70785 l 22.23347,20.72895 q -14.20936,14.20936 -28.75306,20.72895 -14.5437,6.35242 -36.27566,6.35242 -16.7169,0 -31.09343,-4.8479 -14.20936,-4.8479 -24.741,-15.37954 -10.53164,-10.53165 -16.38256,-27.58288 -5.85091,-17.05123 -5.85091,-41.12356 0,-27.91721 9.02712,-47.81032 9.19429,-19.8931 25.74402,-30.42475 16.54973,-10.53164 38.7832,-10.53164 22.73497,0 39.45187,10.53164 16.71689,10.53165 25.40968,29.58891 8.69278,18.89009 8.69278,43.46392 z m -34.60397,-24.2395 q -0.50151,-13.54069 -4.68073,-23.57082 -4.17922,-10.03014 -13.20635,-16.04822 -8.85995,-6.01808 -21.06328,-6.01808 -12.03617,0 -21.23046,6.01808 -9.02712,6.01808 -13.37352,16.04822 -2.34036,5.3494 -3.17621,9.52863 -0.66867,4.01205 -1.33735,14.04219 z"
           id="path13918-6-9"
           style="font-size:342.362px;line-height:1.25;font-family:'DIN Medium';-inkscape-font-specification:'DIN Medium, ';fill:#ffffff;stroke:#ffffff;stroke-width:30;stroke-linejoin:round;stroke-dasharray:none;stroke-opacity:1" />
        <path
           d="m 950.20206,-138.94603 h -42.12657 l -36.27566,-59.1778 -36.61,59.1778 h -42.12657 l 59.51214,-88.59954 -57.17178,-84.92182 h 42.12658 l 34.26963,56.5031 33.9353,-56.5031 h 42.12657 l -56.83744,84.92182 z"
           id="path13920-0-7"
           style="font-size:342.362px;line-height:1.25;font-family:'DIN Medium';-inkscape-font-specification:'DIN Medium, ';fill:#ffffff;stroke:#ffffff;stroke-width:30;stroke-linejoin:round;stroke-dasharray:none;stroke-opacity:1" />
        <path
           d="m 1058.026,-138.94603 h -20.8961 q -15.3795,0 -26.2455,-6.68676 -10.6988,-6.68675 -16.04822,-17.55274 -5.34941,-11.03315 -5.34941,-24.07232 v -95.45347 h -19.72593 v -26.74703 h 19.72593 v -52.65822 h 34.93833 v 52.65822 h 33.6009 v 26.74703 h -33.6009 v 93.78178 q 0,20.22744 19.2244,20.22744 h 14.3765 z"
           id="path13922-6-3"
           style="font-size:342.362px;line-height:1.25;font-family:'DIN Medium';-inkscape-font-specification:'DIN Medium, ';fill:#ffffff;stroke:#ffffff;stroke-width:30;stroke-linejoin:round;stroke-dasharray:none;stroke-opacity:1" />
        <path
           d="m 1270.1635,-80.10256 h -195.4206 v -23.90516 h 195.4206 z"
           id="path13924-2-6"
           style="font-size:342.362px;line-height:1.25;font-family:'DIN Medium';-inkscape-font-specification:'DIN Medium, ';fill:#ffffff;stroke:#ffffff;stroke-width:30;stroke-linejoin:round;stroke-dasharray:none;stroke-opacity:1" />
      </g>
      <g
         id="g1004"
         style="mix-blend-mode:normal;fill:#b2b2b2;fill-opacity:1;stroke:#b2b2b2;stroke-width:20;stroke-linejoin:round;stroke-dasharray:none;stroke-opacity:1;paint-order:stroke fill markers;filter:url(#filter957)"
         transform="translate(-134.91819,864.94638)">
        <g
           id="g1029-6-2"
           transform="translate(134.9182,-864.94639)"
           style="fill:#b2b2b2;fill-opacity:1;stroke:#b2b2b2;stroke-width:20;stroke-linejoin:round;stroke-dasharray:none;stroke-opacity:1;paint-order:stroke fill markers">
          <g
             id="g5323-7-9"
             style="fill:#b2b2b2;fill-opacity:1;stroke:#b2b2b2;stroke-width:20;stroke-linejoin:round;stroke-dasharray:none;stroke-opacity:1;paint-order:stroke fill markers">
            <path
               d="M 424.83682,318.869 H 382.515 l -21.743,-43.486 -46.51826,-10e-5 V 318.869 H 276.837 l -2.3e-4,-185.73801 h 95.39643 c 15.05668,0 28.37173,3.08999 39.94514,9.26997 11.68578,6.06761 20.61866,14.55104 26.79864,25.45028 6.29235,10.78687 9.43852,23.14683 9.43852,37.07988 0,16.85449 -4.55071,30.95609 -13.65214,42.30478 -8.98906,11.23633 -20.73149,18.87703 -35.22636,22.9221 z M 411.16707,205.26821 c 0,-12.02287 -3.82035,-21.46139 -11.46105,-28.31555 -7.52834,-6.96652 -17.64104,-10.44978 -30.33809,-10.44978 h -55.11419 v 77.02503 h 55.11419 c 12.58469,0 22.69738,-3.42708 30.33809,-10.28124 7.6407,-6.85416 11.46105,-16.18031 11.46105,-27.97846 z"
               style="font-size:345.18px;line-height:1.25;font-family:'DIN Medium';-inkscape-font-specification:'DIN Medium, ';fill:#b2b2b2;fill-opacity:1;stroke:#b2b2b2;stroke-width:20;stroke-linejoin:round;stroke-dasharray:none;stroke-opacity:1;paint-order:stroke fill markers"
               id="path17573-5-3"
               sodipodi:nodetypes="cccccccsccscccscsccsss" />
            <path
               style="fill:#b2b2b2;fill-opacity:1;stroke:#b2b2b2;stroke-width:20;stroke-linecap:butt;stroke-linejoin:round;stroke-dasharray:none;stroke-opacity:1;paint-order:stroke fill markers"
               d="m 276.83677,378.869 h 37.41697 v -10 H 277.25 Z"
               id="path1200-3-1" />
            <path
               style="fill:#b2b2b2;fill-opacity:1;stroke:#b2b2b2;stroke-width:20;stroke-linecap:butt;stroke-linejoin:round;stroke-dasharray:none;stroke-opacity:1;paint-order:stroke fill markers"
               d="m 276.83677,358.869 h 37.41697 v -10 H 277.25 Z"
               id="path1548-5-9" />
            <path
               style="fill:#b2b2b2;fill-opacity:1;stroke:#b2b2b2;stroke-width:20;stroke-linecap:butt;stroke-linejoin:round;stroke-dasharray:none;stroke-opacity:1;paint-order:stroke fill markers"
               d="m 276.83677,338.869 h 37.41697 v -10 H 277.25 Z"
               id="path1550-6-4" />
            <path
               style="fill:#b2b2b2;fill-opacity:1;stroke:#b2b2b2;stroke-width:20;stroke-linecap:butt;stroke-linejoin:round;stroke-dasharray:none;stroke-opacity:1;paint-order:stroke fill markers"
               d="m 456.00002,378.86948 -43.48502,-4.8e-4 -5.0001,-10 h 43.29124 z"
               id="path4328-2-7"
               sodipodi:nodetypes="ccccc" />
            <path
               style="fill:#b2b2b2;fill-opacity:1;stroke:#b2b2b2;stroke-width:20;stroke-linecap:butt;stroke-linejoin:round;stroke-dasharray:none;stroke-opacity:1;paint-order:stroke fill markers"
               d="m 446.00012,358.86948 -43.48502,-4.8e-4 -5.0001,-10 h 43.29124 z"
               id="path4696-9-8"
               sodipodi:nodetypes="ccccc" />
            <path
               style="fill:#b2b2b2;fill-opacity:1;stroke:#b2b2b2;stroke-width:20;stroke-linecap:butt;stroke-linejoin:round;stroke-dasharray:none;stroke-opacity:1;paint-order:stroke fill markers"
               d="m 436.00012,338.86948 -43.48502,-4.8e-4 -5.0001,-10 h 43.29124 z"
               id="path5143-1-4"
               sodipodi:nodetypes="ccccc" />
          </g>
        </g>
        <g
           id="g1019-2-50"
           transform="translate(134.9182,-864.94639)"
           style="fill:#b2b2b2;fill-opacity:1;stroke:#b2b2b2;stroke-width:20;stroke-linejoin:round;stroke-dasharray:none;stroke-opacity:1;paint-order:stroke fill markers">
          <g
             id="g1687-7-3"
             style="fill:#b2b2b2;fill-opacity:1;stroke:#b2b2b2;stroke-width:20;stroke-linejoin:round;stroke-dasharray:none;stroke-opacity:1;paint-order:stroke fill markers">
            <path
               d="M 220.651,276.006 220.65086,238.7264 55.999999,162.44162 V 202.4825 L 179.229,257.711 56,312.595 v 6.274 h 72.13693 z"
               id="path17571-0-6"
               style="font-size:345.18px;line-height:1.25;font-family:Gotham;-inkscape-font-specification:Gotham;fill:#b2b2b2;fill-opacity:1;stroke:#b2b2b2;stroke-width:20;stroke-linejoin:round;stroke-dasharray:none;stroke-opacity:1;paint-order:stroke fill markers"
               sodipodi:nodetypes="ccccccccc" />
            <path
               style="fill:#b2b2b2;fill-opacity:1;stroke:#b2b2b2;stroke-width:20;stroke-linecap:butt;stroke-linejoin:round;stroke-dasharray:none;stroke-opacity:1;paint-order:stroke fill markers"
               d="m 56,352.291 v -3.422 h 7.385931 z"
               id="path13998-9-1"
               sodipodi:nodetypes="cccc" />
            <path
               style="fill:#b2b2b2;fill-opacity:1;stroke:#b2b2b2;stroke-width:20;stroke-linecap:butt;stroke-linejoin:round;stroke-dasharray:none;stroke-opacity:1;paint-order:stroke fill markers"
               d="m 56,328.869 h 50.55326 l -21.583663,10 H 56 Z"
               id="path14579-3-0"
               sodipodi:nodetypes="ccccc" />
          </g>
        </g>
        <path
           d="M 770.16542,-564.81362 H 657.49355 q 0,15.21237 5.18224,26.07835 5.18224,10.69881 14.87804,16.7169 9.86296,5.85091 24.23949,5.85091 14.37653,0 23.23649,-4.01206 8.85995,-4.01205 18.89009,-13.70785 l 22.23347,20.72895 q -14.20936,14.20936 -28.75306,20.72895 -14.5437,6.35242 -36.27566,6.35242 -16.7169,0 -31.09343,-4.8479 -14.20936,-4.8479 -24.741,-15.37954 -10.53164,-10.53165 -16.38256,-27.58288 -5.85091,-17.05123 -5.85091,-41.12356 0,-27.91721 9.02712,-47.81032 9.19429,-19.8931 25.74402,-30.42475 16.54973,-10.53164 38.7832,-10.53164 22.73497,0 39.45187,10.53164 16.71689,10.53165 25.40968,29.58891 8.69278,18.89009 8.69278,43.46392 z m -34.60397,-24.2395 q -0.50151,-13.54069 -4.68073,-23.57082 -4.17922,-10.03014 -13.20635,-16.04822 -8.85995,-6.01808 -21.06328,-6.01808 -12.03617,0 -21.23046,6.01808 -9.02712,6.01808 -13.37352,16.04822 -2.34036,5.3494 -3.17621,9.52863 -0.66867,4.01205 -1.33735,14.04219 z"
           id="path13918-6-6"
           style="font-size:342.362px;line-height:1.25;font-family:'DIN Medium';-inkscape-font-specification:'DIN Medium, ';fill:#b2b2b2;fill-opacity:1;stroke:#b2b2b2;stroke-width:20;stroke-linejoin:round;stroke-dasharray:none;stroke-opacity:1;paint-order:stroke fill markers" />
        <path
           d="m 953.3826,-488.08308 h -42.12657 l -36.27566,-59.1778 -36.61,59.1778 H 796.2438 l 59.51214,-88.59954 -57.17178,-84.92182 h 42.12658 l 34.26963,56.5031 33.9353,-56.5031 h 42.12657 l -56.83744,84.92182 z"
           id="path13920-0-3"
           style="font-size:342.362px;line-height:1.25;font-family:'DIN Medium';-inkscape-font-specification:'DIN Medium, ';fill:#b2b2b2;fill-opacity:1;stroke:#b2b2b2;stroke-width:20;stroke-linejoin:round;stroke-dasharray:none;stroke-opacity:1;paint-order:stroke fill markers" />
        <path
           d="m 1061.2066,-488.08308 h -20.8961 q -15.3796,0 -26.2456,-6.68676 -10.6988,-6.68675 -16.04818,-17.55274 -5.34941,-11.03315 -5.34941,-24.07232 v -95.45347 h -19.72593 v -26.74703 h 19.72593 v -52.65822 h 34.93829 v 52.65822 h 33.601 v 26.74703 h -33.601 v 93.78178 q 0,20.22744 19.2244,20.22744 h 14.3766 z"
           id="path13922-6-2"
           style="font-size:342.362px;line-height:1.25;font-family:'DIN Medium';-inkscape-font-specification:'DIN Medium, ';fill:#b2b2b2;fill-opacity:1;stroke:#b2b2b2;stroke-width:20;stroke-linejoin:round;stroke-dasharray:none;stroke-opacity:1;paint-order:stroke fill markers" />
        <path
           d="m 1273.344,-429.23961 h -195.4205 v -23.90516 h 195.4205 z"
           id="path13924-2-0"
           style="font-size:342.362px;line-height:1.25;font-family:'DIN Medium';-inkscape-font-specification:'DIN Medium, ';fill:#b2b2b2;fill-opacity:1;stroke:#b2b2b2;stroke-width:20;stroke-linejoin:round;stroke-dasharray:none;stroke-opacity:1;paint-order:stroke fill markers" />
      </g>
      <g
         id="g984"
         style="mix-blend-mode:normal;fill:#666666;fill-opacity:1;stroke:#666666;stroke-width:10;stroke-linecap:round;stroke-linejoin:round;stroke-dasharray:none;stroke-opacity:1;paint-order:normal;filter:url(#filter953)"
         transform="translate(-137.30589,1206.168)">
        <g
           id="g1029-6-5"
           transform="translate(137.3059,-1206.168)"
           style="fill:#666666;fill-opacity:1;stroke:#666666;stroke-width:10;stroke-linecap:round;stroke-linejoin:round;stroke-dasharray:none;stroke-opacity:1;paint-order:normal">
          <g
             id="g5323-7-5"
             style="fill:#666666;fill-opacity:1;stroke:#666666;stroke-width:10;stroke-linecap:round;stroke-linejoin:round;stroke-dasharray:none;stroke-opacity:1;paint-order:normal">
            <path
               d="M 424.83682,318.869 H 382.515 l -21.743,-43.486 -46.51826,-10e-5 V 318.869 H 276.837 l -2.3e-4,-185.73801 h 95.39643 c 15.05668,0 28.37173,3.08999 39.94514,9.26997 11.68578,6.06761 20.61866,14.55104 26.79864,25.45028 6.29235,10.78687 9.43852,23.14683 9.43852,37.07988 0,16.85449 -4.55071,30.95609 -13.65214,42.30478 -8.98906,11.23633 -20.73149,18.87703 -35.22636,22.9221 z M 411.16707,205.26821 c 0,-12.02287 -3.82035,-21.46139 -11.46105,-28.31555 -7.52834,-6.96652 -17.64104,-10.44978 -30.33809,-10.44978 h -55.11419 v 77.02503 h 55.11419 c 12.58469,0 22.69738,-3.42708 30.33809,-10.28124 7.6407,-6.85416 11.46105,-16.18031 11.46105,-27.97846 z"
               style="font-size:345.18px;line-height:1.25;font-family:'DIN Medium';-inkscape-font-specification:'DIN Medium, ';fill:#666666;fill-opacity:1;stroke:#666666;stroke-width:10;stroke-linecap:round;stroke-linejoin:round;stroke-dasharray:none;stroke-opacity:1;paint-order:normal"
               id="path17573-5-4"
               sodipodi:nodetypes="cccccccsccscccscsccsss" />
            <path
               style="fill:#666666;fill-opacity:1;stroke:#666666;stroke-width:10;stroke-linecap:round;stroke-linejoin:round;stroke-dasharray:none;stroke-opacity:1;paint-order:normal"
               d="m 276.83677,378.869 h 37.41697 v -10 H 277.25 Z"
               id="path1200-3-7" />
            <path
               style="fill:#666666;fill-opacity:1;stroke:#666666;stroke-width:10;stroke-linecap:round;stroke-linejoin:round;stroke-dasharray:none;stroke-opacity:1;paint-order:normal"
               d="m 276.83677,358.869 h 37.41697 v -10 H 277.25 Z"
               id="path1548-5-6" />
            <path
               style="fill:#666666;fill-opacity:1;stroke:#666666;stroke-width:10;stroke-linecap:round;stroke-linejoin:round;stroke-dasharray:none;stroke-opacity:1;paint-order:normal"
               d="m 276.83677,338.869 h 37.41697 v -10 H 277.25 Z"
               id="path1550-6-5" />
            <path
               style="fill:#666666;fill-opacity:1;stroke:#666666;stroke-width:10;stroke-linecap:round;stroke-linejoin:round;stroke-dasharray:none;stroke-opacity:1;paint-order:normal"
               d="m 456.00002,378.86948 -43.48502,-4.8e-4 -5.0001,-10 h 43.29124 z"
               id="path4328-2-6"
               sodipodi:nodetypes="ccccc" />
            <path
               style="fill:#666666;fill-opacity:1;stroke:#666666;stroke-width:10;stroke-linecap:round;stroke-linejoin:round;stroke-dasharray:none;stroke-opacity:1;paint-order:normal"
               d="m 446.00012,358.86948 -43.48502,-4.8e-4 -5.0001,-10 h 43.29124 z"
               id="path4696-9-9"
               sodipodi:nodetypes="ccccc" />
            <path
               style="fill:#666666;fill-opacity:1;stroke:#666666;stroke-width:10;stroke-linecap:round;stroke-linejoin:round;stroke-dasharray:none;stroke-opacity:1;paint-order:normal"
               d="m 436.00012,338.86948 -43.48502,-4.8e-4 -5.0001,-10 h 43.29124 z"
               id="path5143-1-3"
               sodipodi:nodetypes="ccccc" />
          </g>
        </g>
        <g
           id="g1019-2-7"
           transform="translate(137.3059,-1206.168)"
           style="fill:#666666;fill-opacity:1;stroke:#666666;stroke-width:10;stroke-linecap:round;stroke-linejoin:round;stroke-dasharray:none;stroke-opacity:1;paint-order:normal">
          <g
             id="g1687-7-4"
             style="fill:#666666;fill-opacity:1;stroke:#666666;stroke-width:10;stroke-linecap:round;stroke-linejoin:round;stroke-dasharray:none;stroke-opacity:1;paint-order:normal">
            <path
               d="M 220.651,276.006 220.65086,238.7264 55.999999,162.44162 V 202.4825 L 179.229,257.711 56,312.595 v 6.274 h 72.13693 z"
               id="path17571-0-5"
               style="font-size:345.18px;line-height:1.25;font-family:Gotham;-inkscape-font-specification:Gotham;fill:#666666;fill-opacity:1;stroke:#666666;stroke-width:10;stroke-linecap:round;stroke-linejoin:round;stroke-dasharray:none;stroke-opacity:1;paint-order:normal"
               sodipodi:nodetypes="ccccccccc" />
            <path
               style="fill:#666666;fill-opacity:1;stroke:#666666;stroke-width:10;stroke-linecap:round;stroke-linejoin:round;stroke-dasharray:none;stroke-opacity:1;paint-order:normal"
               d="m 56,352.291 v -3.422 h 7.385931 z"
               id="path13998-9-25"
               sodipodi:nodetypes="cccc" />
            <path
               style="fill:#666666;fill-opacity:1;stroke:#666666;stroke-width:10;stroke-linecap:round;stroke-linejoin:round;stroke-dasharray:none;stroke-opacity:1;paint-order:normal"
               d="m 56,328.869 h 50.55326 l -21.583663,10 H 56 Z"
               id="path14579-3-4"
               sodipodi:nodetypes="ccccc" />
          </g>
        </g>
        <path
           d="M 772.55312,-906.03523 H 659.88125 q 0,15.21237 5.18224,26.07835 5.18224,10.69881 14.87804,16.7169 9.86296,5.85091 24.23949,5.85091 14.37653,0 23.23649,-4.01206 8.85995,-4.01205 18.89009,-13.70785 l 22.23347,20.72895 q -14.20936,14.20936 -28.75306,20.72895 -14.5437,6.35242 -36.27566,6.35242 -16.7169,0 -31.09343,-4.8479 -14.20936,-4.8479 -24.741,-15.37954 -10.53164,-10.53165 -16.38256,-27.58288 -5.85091,-17.05123 -5.85091,-41.12356 0,-27.91721 9.02712,-47.81032 9.19429,-19.8931 25.74402,-30.42475 16.54973,-10.53159 38.7832,-10.53159 22.73497,0 39.45187,10.53159 16.71689,10.53165 25.40968,29.58891 8.69278,18.89009 8.69278,43.46392 z m -34.60397,-24.2395 q -0.50151,-13.54069 -4.68073,-23.57082 -4.17922,-10.03014 -13.20635,-16.04822 -8.85995,-6.01808 -21.06328,-6.01808 -12.03617,0 -21.23046,6.01808 -9.02712,6.01808 -13.37352,16.04822 -2.34036,5.3494 -3.17621,9.52863 -0.66867,4.01205 -1.33735,14.04219 z"
           id="path13918-6-7"
           style="font-size:342.362px;line-height:1.25;font-family:'DIN Medium';-inkscape-font-specification:'DIN Medium, ';fill:#666666;fill-opacity:1;stroke:#666666;stroke-width:10;stroke-linecap:round;stroke-linejoin:round;stroke-dasharray:none;stroke-opacity:1;paint-order:normal" />
        <path
           d="m 955.7703,-829.30469 h -42.12657 l -36.27566,-59.1778 -36.61,59.1778 H 798.6315 l 59.51214,-88.59954 -57.17178,-84.92177 h 42.12658 l 34.26963,56.50305 33.9353,-56.50305 h 42.12657 l -56.83744,84.92177 z"
           id="path13920-0-4"
           style="font-size:342.362px;line-height:1.25;font-family:'DIN Medium';-inkscape-font-specification:'DIN Medium, ';fill:#666666;fill-opacity:1;stroke:#666666;stroke-width:10;stroke-linecap:round;stroke-linejoin:round;stroke-dasharray:none;stroke-opacity:1;paint-order:normal" />
        <path
           d="m 1063.5943,-829.30469 h -20.8961 q -15.3796,0 -26.2456,-6.68676 -10.6988,-6.68675 -16.0482,-17.55274 -5.34939,-11.03315 -5.34939,-24.07232 v -95.45347 h -19.72593 v -26.74703 h 19.72593 v -52.65819 h 34.93829 v 52.65819 h 33.601 v 26.74703 h -33.601 v 93.78178 q 0,20.22744 19.2244,20.22744 h 14.3766 z"
           id="path13922-6-4"
           style="font-size:342.362px;line-height:1.25;font-family:'DIN Medium';-inkscape-font-specification:'DIN Medium, ';fill:#666666;fill-opacity:1;stroke:#666666;stroke-width:10;stroke-linecap:round;stroke-linejoin:round;stroke-dasharray:none;stroke-opacity:1;paint-order:normal" />
        <path
           d="m 1275.7317,-770.46122 h -195.4205 v -23.90516 h 195.4205 z"
           id="path13924-2-3"
           style="font-size:342.362px;line-height:1.25;font-family:'DIN Medium';-inkscape-font-specification:'DIN Medium, ';fill:#666666;fill-opacity:1;stroke:#666666;stroke-width:10;stroke-linecap:round;stroke-linejoin:round;stroke-dasharray:none;stroke-opacity:1;paint-order:normal" />
      </g>
      <g
         id="g1049">
        <g
           id="g1029">
          <g
             id="g5323"
             style="fill:#1a1a1a">
            <path
               d="M 424.83682,318.869 H 382.515 l -21.743,-43.486 -46.51826,-10e-5 V 318.869 H 276.837 l -2.3e-4,-185.73801 h 95.39643 c 15.05668,0 28.37173,3.08999 39.94514,9.26997 11.68578,6.06761 20.61866,14.55104 26.79864,25.45028 6.29235,10.78687 9.43852,23.14683 9.43852,37.07988 0,16.85449 -4.55071,30.95609 -13.65214,42.30478 -8.98906,11.23633 -20.73149,18.87703 -35.22636,22.9221 z M 411.16707,205.26821 c 0,-12.02287 -3.82035,-21.46139 -11.46105,-28.31555 -7.52834,-6.96652 -17.64104,-10.44978 -30.33809,-10.44978 h -55.11419 v 77.02503 h 55.11419 c 12.58469,0 22.69738,-3.42708 30.33809,-10.28124 7.6407,-6.85416 11.46105,-16.18031 11.46105,-27.97846 z"
               style="font-size:345.18px;line-height:1.25;font-family:'DIN Medium';-inkscape-font-specification:'DIN Medium, ';fill:#1a1a1a;fill-opacity:1;stroke-width:8.62948"
               id="path17573"
               sodipodi:nodetypes="cccccccsccscccscsccsss" />
            <path
               style="fill:#1a1a1a;fill-opacity:1;stroke:none;stroke-width:0.982023px;stroke-linecap:butt;stroke-linejoin:miter;stroke-opacity:1"
               d="m 276.83677,378.869 h 37.41697 v -10 H 277.25 Z"
               id="path1200" />
            <path
               style="fill:#1a1a1a;fill-opacity:1;stroke:none;stroke-width:0.982023px;stroke-linecap:butt;stroke-linejoin:miter;stroke-opacity:1"
               d="m 276.83677,358.869 h 37.41697 v -10 H 277.25 Z"
               id="path1548" />
            <path
               style="fill:#1a1a1a;fill-opacity:1;stroke:none;stroke-width:0.982023px;stroke-linecap:butt;stroke-linejoin:miter;stroke-opacity:1"
               d="m 276.83677,338.869 h 37.41697 v -10 H 277.25 Z"
               id="path1550" />
            <path
               style="fill:#1a1a1a;fill-opacity:1;stroke:none;stroke-width:1px;stroke-linecap:butt;stroke-linejoin:miter;stroke-opacity:1"
               d="m 456.00002,378.86948 -43.48502,-4.8e-4 -5.0001,-10 h 43.29124 z"
               id="path4328"
               sodipodi:nodetypes="ccccc" />
            <path
               style="fill:#1a1a1a;fill-opacity:1;stroke:none;stroke-width:1px;stroke-linecap:butt;stroke-linejoin:miter;stroke-opacity:1"
               d="m 446.00012,358.86948 -43.48502,-4.8e-4 -5.0001,-10 h 43.29124 z"
               id="path4696"
               sodipodi:nodetypes="ccccc" />
            <path
               style="fill:#1a1a1a;fill-opacity:1;stroke:none;stroke-width:1px;stroke-linecap:butt;stroke-linejoin:miter;stroke-opacity:1"
               d="m 436.00012,338.86948 -43.48502,-4.8e-4 -5.0001,-10 h 43.29124 z"
               id="path5143"
               sodipodi:nodetypes="ccccc" />
          </g>
        </g>
        <g
           id="g1019">
          <g
             id="g1687">
            <path
               d="M 220.651,276.006 220.65086,238.7264 55.999999,162.44162 V 202.4825 L 179.229,257.711 56,312.595 v 6.274 h 72.13693 z"
               id="path17571"
               style="font-size:345.18px;line-height:1.25;font-family:Gotham;-inkscape-font-specification:Gotham;fill:#1a1a1a;stroke-width:8.62948"
               sodipodi:nodetypes="ccccccccc" />
            <path
               style="fill:#1a1a1a;fill-opacity:1;stroke:none;stroke-width:1px;stroke-linecap:butt;stroke-linejoin:miter;stroke-opacity:1"
               d="m 56,352.291 v -3.422 h 7.385931 z"
               id="path13998"
               sodipodi:nodetypes="cccc" />
            <path
               style="fill:#1a1a1a;fill-opacity:1;stroke:none;stroke-width:1px;stroke-linecap:butt;stroke-linejoin:miter;stroke-opacity:1"
               d="m 56,328.869 h 50.55326 l -21.583663,10 H 56 Z"
               id="path14579"
               sodipodi:nodetypes="ccccc" />
          </g>
        </g>
        <path
           d="M 635.24722,300.13277 H 522.57535 q 0,15.21237 5.18224,26.07835 5.18224,10.69881 14.87804,16.7169 9.86296,5.85091 24.23949,5.85091 14.37653,0 23.23649,-4.01206 8.85995,-4.01205 18.89009,-13.70785 l 22.23347,20.72895 q -14.20936,14.20936 -28.75306,20.72895 -14.5437,6.35242 -36.27566,6.35242 -16.7169,0 -31.09343,-4.8479 -14.20936,-4.8479 -24.741,-15.37954 -10.53164,-10.53165 -16.38256,-27.58288 -5.85091,-17.05123 -5.85091,-41.12356 0,-27.91721 9.02712,-47.81032 9.19429,-19.8931 25.74402,-30.42475 16.54973,-10.53164 38.7832,-10.53164 22.73497,0 39.45187,10.53164 16.71689,10.53165 25.40968,29.58891 8.69278,18.89009 8.69278,43.46392 z m -34.60397,-24.2395 q -0.50151,-13.54069 -4.68073,-23.57082 -4.17922,-10.03014 -13.20635,-16.04822 -8.85995,-6.01808 -21.06328,-6.01808 -12.03617,0 -21.23046,6.01808 -9.02712,6.01808 -13.37352,16.04822 -2.34036,5.3494 -3.17621,9.52863 -0.66867,4.01205 -1.33735,14.04219 z"
           id="path13918"
           style="font-size:342.362px;line-height:1.25;font-family:'DIN Medium';-inkscape-font-specification:'DIN Medium, ';fill:#1a1a1a;stroke-width:8.55902" />
        <path
           d="m 818.4644,376.86331 h -42.12657 l -36.27566,-59.1778 -36.61,59.1778 H 661.3256 l 59.51214,-88.59954 -57.17178,-84.92182 h 42.12658 l 34.26963,56.5031 33.9353,-56.5031 h 42.12657 l -56.83744,84.92182 z"
           id="path13920"
           style="font-size:342.362px;line-height:1.25;font-family:'DIN Medium';-inkscape-font-specification:'DIN Medium, ';fill:#1a1a1a;stroke-width:8.55902" />
        <path
           d="m 926.28838,376.86331 h -20.89612 q -15.37954,0 -26.24552,-6.68676 -10.69881,-6.68675 -16.04822,-17.55274 -5.34941,-11.03315 -5.34941,-24.07232 v -95.45347 h -19.72593 v -26.74703 h 19.72593 v -52.65822 h 34.93831 v 52.65822 h 33.60096 v 26.74703 h -33.60096 v 93.78178 q 0,20.22744 19.22443,20.22744 h 14.37653 z"
           id="path13922"
           style="font-size:342.362px;line-height:1.25;font-family:'DIN Medium';-inkscape-font-specification:'DIN Medium, ';fill:#1a1a1a;stroke-width:8.55902" />
        <path
           d="M 1138.4258,435.70678 H 943.00526 v -23.90516 h 195.42054 z"
           id="path13924"
           style="font-size:342.362px;line-height:1.25;font-family:'DIN Medium';-inkscape-font-specification:'DIN Medium, ';fill:#1a1a1a;stroke-width:8.55902" />
      </g>
    </g>
  </g>
</svg>
